<?xml version="1.0" standalone="no"?><!DOCTYPE svg PUBLIC "-//W3C//DTD SVG 1.1//EN" "http://www.w3.org/Graphics/SVG/1.1/DTD/svg11.dtd"><svg t="1571206941151" class="icon" viewBox="0 0 1024 1024" version="1.1" xmlns="http://www.w3.org/2000/svg" p-id="3979" xmlns:xlink="http://www.w3.org/1999/xlink" width="200" height="200"><defs><style type="text/css"></style></defs><path d="M506.5 242.118c242.729 0 439.5 173.911 439.5 388.441S749.229 1019 506.5 1019 67 845.089 67 630.559s196.771-388.441 439.5-388.441z" fill="#EEEEEE" p-id="3980"></path><path d="M506.5 75.682c401.792 0 405.2 183.417 405.2 409.672-148.134 0-391.9 106.211-405.2 106.211-2.376 0-252.283-106.211-405.2-106.211 0-226.254-1.042-409.672 405.2-409.672z" fill="#313131" p-id="3981"></path><path d="M373.61 661.5m-44.984 0a44.984 44.984 0 1 0 89.968 0 44.984 44.984 0 1 0-89.968 0Z" p-id="3982"></path><path d="M635.235 661.5m-44.985 0a44.985 44.985 0 1 0 89.97 0 44.985 44.985 0 1 0-89.97 0Z" p-id="3983"></path><path d="M413.171 732.878c51.544 0 93.328 42.013 93.328 93.837s-41.784 93.834-93.328 93.834c-24.212 0-87.553 10.783-139.226-18.46-58.33-33.009-104.038-107.889-104.038-135.368 1.05-5.917 56.324 25.86 116.124 24.807 50.527-0.89 103.534-58.65 127.14-58.65z" p-id="3984"></path><path d="M512.68 7c28.063 0 50.812 25.7 50.812 57.405s-22.749 57.4-50.812 57.4-50.813-25.7-50.813-57.4S484.617 7 512.68 7z" fill="#313131" p-id="3985"></path><path d="M599.827 732.878c-51.543 0-93.328 42.268-93.328 94.407s41.785 94.407 93.328 94.407c24.213 0 87.555 10.847 139.227-18.572 58.33-33.21 104.038-108.547 104.038-136.194-1.049-5.951-56.325 26.019-116.124 24.959-50.527-0.896-103.534-59.007-127.141-59.007z" p-id="3986"></path><path d="M517.485 370m-142.828 0a142.828 142.828 0 1 0 285.656 0 142.828 142.828 0 1 0-285.656 0Z" fill="#FFFFFF" p-id="3987"></path><path d="M433.971 371.953l85.951-86.16 85.952 86.16-85.952 86.161z" fill="#313131" p-id="3988"></path></svg>