<?xml version="1.0" standalone="no"?><!DOCTYPE svg PUBLIC "-//W3C//DTD SVG 1.1//EN" "http://www.w3.org/Graphics/SVG/1.1/DTD/svg11.dtd"><svg t="1571207293104" class="icon" viewBox="0 0 1144 1024" version="1.1" xmlns="http://www.w3.org/2000/svg" p-id="7330" xmlns:xlink="http://www.w3.org/1999/xlink" width="223.4375" height="200"><defs><style type="text/css"></style></defs><path d="M556.641046 0h16.76549c13.619869 2.576732 26.67085 10.541176 31.924706 23.893333 17.300915 36.408889 6.023529 78.473203-10.775425 112.874249 2.141699 13.318693 4.684967 26.536993 7.42902 39.72183 57.55817 17.401307 115.049412 37.479739 166.751372 68.668235 10.675033 5.755817 19.174902 15.795033 30.88732 19.342222 12.54902-1.505882 20.948497-12.749804 28.243661-22.019346 18.17098-26.068497 37.479739-51.601569 60.603398-73.487059 11.578562-10.440784 25.265359-21.216209 41.696209-20.981961 18.672941 0.334641 40.190327 5.053072 51.233464 21.584314 8.165229 12.080523 6.324706 27.741699 1.673203 40.759216-6.090458 17.66902-20.981961 30.117647-35.170719 41.328104-27.00549 21.182745-58.361307 36.174641-84.195555 58.863268 41.227712 56.821961 65.15451 123.716601 100.392156 184.119216 7.696732 11.779346 13.820654 26.336209 26.67085 33.36366 38.48366-7.629804 78.774379-16.899346 117.726536-6.759739 18.271373 4.383791 34.099869 19.208366 35.973856 38.517125v14.389542c-3.54719 17.200523-18.739869 28.611765-34.802614 33.263268-26.771242 8.031373-55.148758 8.499869-82.856994 7.663268-2.007843-5.053072-4.417255-9.938824-6.893594-14.791111 26.771242 1.773595 54.077908 1.338562 80.213333-5.12 10.875817-3.212549 23.29098-7.830588 28.444444-18.773333 5.354248-13.720261-0.803137-30.753464-14.188758-37.212026-21.785098-10.842353-47.217778-8.533333-70.642614-6.19085-18.104052 1.57281-35.505359 7.228235-53.442092 9.771503-14.389542-1.840523-22.487843-16.230065-30.251503-26.972026-35.271111-56.755033-58.829804-119.935163-94.234771-176.623268-5.755817-9.269542-13.486013-17.401307-17.300915-27.741699 0.669281-9.035294 8.700654-14.657255 15.058823-19.97804 31.857778-24.02719 69.002876-41.428497 96.811504-70.542222 10.373856-12.682876 19.07451-35.170719 4.751895-48.154771-13.653333-9.671111-33.798693-14.657255-49.158693-6.391634-25.43268 16.397386-44.038693 41.060392-62.176209 64.819869-13.352157 17.635556-24.830327 40.290719-47.585882 47.016994-16.966275 5.086536-28.578301-11.176993-41.763138-18.606013-53.575948-33.02902-113.777778-53.642876-173.879215-71.278432-5.153464-17.903268-8.198693-36.275033-10.942745-54.680261 13.854118-27.306667 25.164967-58.863268 17.602091-89.717124-3.011765-10.474248-6.960523-23.056732-18.271372-27.206275-12.214379-4.417255-28.344052-4.618039-37.546667 5.956601-17.334379 16.163137-18.271373 42.666667-11.511634 64.016732 3.71451 13.720261 13.552941 25.700392 13.151373 40.45804 0.033464 21.483922-5.153464 45.076078-21.048889 60.469542-43.369412 7.495948-84.195556 24.629542-124.151634 42.532811-30.485752 13.887582-60.536471 28.712157-90.118693 44.406797-25.934641-47.853595-66.426144-89.549804-117.559216-109.862484-12.482092-6.023529-27.072418 0.368105-34.066405 11.545098-8.131765 12.080523-13.95451 26.503529-13.820654 41.227713 5.253856 15.226144 20.915033 23.324444 33.966013 31.121568 31.255425 17.100131 65.422222 27.808627 97.447321 43.26902 7.830588 4.183007 18.00366 9.202614 18.371764 19.40915-1.40549 5.789281-6.726275 9.369935-10.541176 13.552942-18.606013 16.832418-31.389281 38.818301-42.733595 60.904575-21.048889 41.896993-34.936471 86.772288-50.530719 130.844444-3.614118 8.566797-6.592418 20.680784-17.535163 22.153203-31.857778 4.183007-63.347451-5.220392-94.335164-11.277386-14.222222-2.007843-29.883399-2.944837-42.900915 4.283399-14.924967 8.332549-21.048889 27.206275-18.873725 43.402876 4.015686 14.088366 16.899346 25.867712 31.757385 27.00549 26.637386 2.911373 53.174379-3.078693 79.242876-7.797124-4.986144 5.621961-9.570719 11.578562-14.389542 17.334379-22.320523 3.71451-45.109542 7.395556-67.731242 4.484183-21.684706-1.740131-40.089935-20.178824-43.503268-41.395033v-11.444706c1.472418-19.609935 12.515556-39.219869 31.422745-46.615425 25.231895-10.474248 52.806275-2.409412 78.20549 3.112157 19.476078 3.112157 39.755294 8.600261 59.365229 4.183007 9.704575-18.438693 14.28915-39.019085 21.684706-58.428236 20.011503-55.884967 41.261176-114.681307 85.333333-156.511372-40.79268-21.115817-86.437647-32.493595-124.486274-58.863268-12.850196-8.867974-26.168889-22.554771-23.391373-39.621438 2.677124-18.940654 9.871895-38.282876 23.859869-51.835817 12.281307-11.846275 31.556601-13.251765 46.682353-6.35817 48.322092 20.413072 88.077386 58.227451 114.815164 103.002353 37.479739-19.944575 75.996863-38.015163 115.216732-54.278693 27.942484-11.210458 56.453856-21.785098 86.337255-26.336209 9.637647-15.125752 15.293072-33.19634 13.352157-51.2-2.777516-12.482092-10.373856-23.29098-13.218301-35.806536-4.785359-19.609935-5.621961-41.696209 4.450719-59.867189 7.59634-13.887582 20.212288-27.105882 37.011242-27.90902z" p-id="7331"></path><path d="M535.726013 36.843922c1.706667-1.57281 5.086536-4.651503 6.793203-6.224314 3.011765 4.818824 6.458562 9.671111 5.822745 15.69464-0.16732 19.476078-2.744052 39.019085-7.328628 57.959739-3.379869-22.253595-6.659346-44.875294-5.28732-67.430065zM915.442614 179.166536c3.647582-4.249935 9.738039-4.618039 14.021438-0.970458 4.718431 5.856209-1.305098 12.348235-5.856209 15.995817-13.486013 10.106144-28.946405 17.300915-44.406797 23.893334 10.842353-14.054902 22.755556-27.373595 36.241568-38.918693zM162.836078 224.175686c-1.472418-8.901438 3.513725-19.777255 14.088366-15.192679 22.521307 9.202614 41.060392 26.603922 57.825883 43.837908-24.495686-7.997908-49.426405-15.728105-71.914249-28.645229zM430.916601 260.249935c58.428235-27.540915 125.490196-33.832157 188.804183-22.922876 46.113464 9.035294 89.650196 29.214118 127.966536 56.15268 30.218039 21.651242 58.461699 47.753203 75.762615 81.116862 25.164967 46.916601 46.849673 95.774118 65.020653 145.83634-5.956601-2.744052-11.946667-5.354248-17.970196-7.93098-18.974118-46.849673-38.450196-93.766275-63.682091-137.671111-17.367843-30.786928-45.109542-53.977516-73.8217-73.788236-37.011242-24.52915-78.37281-43.536732-122.378039-50.831895-58.327843-8.600261-119.767843-2.442876-173.343791 23.12366-56.32 25.834248-102.199216 70.040261-138.373856 119.633987-10.24 14.523399-21.651242 28.745621-27.239739 45.91268-8.432941 24.629542-17.468235 49.125229-23.792941 74.424052-5.856209 2.677124-11.64549 5.488105-17.401307 8.332549 9.403399-35.003399 20.31268-69.772549 34.099869-103.270065 40.089935-65.924183 95.573333-125.155556 166.349804-158.117647z" p-id="7332"></path><path d="M546.702222 281.800784c8.801046-5.621961 24.863791-2.677124 26.436602 9.236079 1.974379 12.448627-13.854118 19.275294-23.659085 14.188758-10.039216-3.112157-11.879739-18.104052-2.777517-23.424837zM528.497778 328.215425c56.119216-8.232157 115.618301 0.936993 165.178562 29.080261 50.564183 28.544837 85.199477 77.703529 110.264052 128.870066-7.797124-2.509804-15.928889-3.848366-23.525229-6.893595l0.702745-1.037386c0.334641-8.767582-7.362092-15.594248-11.076601-23.157124-26.637386-45.343791-67.329673-83.660131-117.626144-100.927582-54.01098-18.505621-115.685229-21.584314-168.558431 2.342484-54.579869 23.826405-96.443399 69.002876-128.435033 118.128105-6.391634 1.673203-12.749804 3.379869-19.074509 5.253856 40.491503-72.650458 107.586928-137.236078 192.150588-151.659085zM747.553464 342.973072c10.106144-4.517647 26.135425 2.744052 22.855948 15.426928-3.078693 14.724183-28.678693 14.958431-31.62353-0.066928-1.840523-6.592418 2.576732-13.251765 8.767582-15.36zM359.705098 346.654118c9.570719-4.517647 23.558693 0.870065 24.52915 12.281307-0.669281 15.025359-23.224052 19.208366-30.820392 7.060915-5.253856-6.659346-0.535425-15.995817 6.291242-19.342222zM43.469804 541.916863c6.123922-8.767582 18.405229-5.320784 27.407059-5.086536 17.936732 3.179085 35.906928 7.362092 52.839738 14.222222-24.161046 3.54719-48.690196 6.625882-73.118954 4.852288-6.960523-0.334641-7.529412-8.767582-7.127843-13.987974zM1029.789281 540.07634c21.483922-2.108235 43.202092-1.57281 64.752941-0.669281 5.822745 0.736209 13.552941-0.100392 16.531242 6.324706 0.803137 7.362092-8.198693 7.161307-13.318693 7.362091-23.12366-1.137778-45.644967-7.328627-67.96549-13.017516z" p-id="7333"></path><path d="M355.421699 474.620654c62.075817-16.798954 125.791373-27.540915 189.941961-32.593987 17.936732-1.57281 35.973856-0.234248 53.910588 1.104313 61.473464 5.053072 122.578824 16.665098 181.140915 36.141177 7.59634 3.045229 15.728105 4.383791 23.525229 6.893595 22.320523 8.399477 44.707974 16.698562 66.56 26.336209 6.023529 2.576732 12.013595 5.186928 17.970196 7.93098 37.312418 17.300915 73.587451 36.944314 108.088889 59.365229 8.767582 5.588497 16.732026 12.448627 23.357909 20.513464 2.47634 4.852288 4.885752 9.738039 6.893594 14.791111 3.747974 15.19268-0.568889 31.288889-10.206536 43.369412-17.434771 25.867712-54.479477 25.098039-72.683921 50.430327 6.391634 11.176993 13.95451 23.726013 10.775425 37.178562-1.438954 8.198693-8.432941 13.352157-13.95451 18.840261-26.905098-7.696732-54.91451-10.206536-82.689673-12.582483-87.274248-6.558954-174.816209-6.224314-262.291242-6.123922-134.927059 1.204706-269.820654 5.555033-404.64732 11.076601-3.112157-19.743791-3.112157-40.190327-8.533334-59.465621-11.009673-5.12-23.759477 3.379869-34.93647-2.409411-29.883399-11.47817-40.491503-46.08-43.871373-75.05987l7.462484-8.667189c4.818824-5.755817 9.403399-11.712418 14.389542-17.334379 31.590065-28.678693 66.359216-54.01098 104.842876-72.717386 5.755817-2.844444 11.545098-5.655425 17.401307-8.332549 28.678693-13.218301 58.428235-23.792941 88.478955-33.430588a617.411765 617.411765 0 0 1 19.074509-5.253856m190.410458 8.031372c-25.666928 6.35817-45.410719 27.00549-56.688105 50.196079-21.852026 45.243399-18.639477 103.303529 11.812811 143.928888 14.322614 18.940654 36.710065 33.564444 61.172287 32.828236 24.562614 1.204706 47.184314-13.151373 61.841569-31.991634 23.826405-30.418824 30.485752-71.51268 24.161046-108.992419-5.454641-30.586144-21.350065-60.837647-48.322092-77.536209-15.928889-9.972288-35.773072-12.749804-53.977516-8.432941z" p-id="7334"></path><path d="M546.903007 523.110065c9.671111-9.436863 26.83817-7.730196 35.973856 1.740131 0.535425 10.07268-4.551111 18.639477-8.399477 27.473987-2.141699 25.298824-1.171242 50.764967-2.041308 76.130719 8.600261 3.413333 19.308758 8.499869 27.641308 1.706667 12.515556-11.377778 14.456471-29.716078 13.151372-45.644968 4.216471 6.52549 10.909281 12.649412 10.139608 21.149281-2.442876 32.326275-30.151111 63.615163-64.217516 61.875033-20.31268-2.877908-39.152941-15.226144-51.066144-31.79085-11.612026-16.798954-3.948758-38.952157 5.822745-54.747189 0.334641 14.456471-2.710588 29.849935 3.246013 43.570196 8.83451 11.678954 24.395294 5.789281 35.906928 2.610196-0.200784-23.993725 0.535425-47.987451-0.234248-71.947712-2.64366-10.340392-12.682876-21.416993-5.923137-32.125491zM565.475556 795.607843c48.054379-2.041307 96.175686 0.368105 144.196601-1.639738 31.121569-0.16732 62.209673 0.100392 93.331242-0.100393 43.302484-1.873987 86.671895 0.16732 129.974379-1.23817-1.338562 24.696471-0.702745 49.459869-2.375948 74.122876-3.681046 10.005752-10.173072 18.639477-16.330457 27.273203-33.062484 44.272941-81.049935 75.294118-131.948759 95.339085-54.044444 21.048889-112.104575 30.151111-169.863529 32.092026-21.283137-0.368105-42.53281 0.836601-63.74902 1.706667-67.96549-0.401569-136.767582-8.901438-200.516601-33.464053-54.680261-20.848105-105.646013-56.253072-136.566797-106.817254-3.88183-7.194771-10.306928-14.021438-9.838432-22.688628 1.003922-20.680784 2.208627-41.395033 3.37987-62.075817 54.345621-1.606275 108.724706 0.033464 163.070326-1.706667 65.756863 0.635817 131.480261-1.438954 197.237125-0.803137z" p-id="7335"></path><path d="M545.832157 482.652026c18.204444-4.316863 38.048627-1.539346 53.977516 8.432941 26.972026 16.698562 42.867451 46.950065 48.322092 77.536209 6.324706 37.479739-0.334641 78.573595-24.161046 108.992419-14.657255 18.840261-37.278954 33.19634-61.841569 31.991634-24.462222 0.736209-46.849673-13.887582-61.172287-32.828236-30.452288-40.625359-33.664837-98.68549-11.812811-143.928888 11.277386-23.190588 31.021176-43.837908 56.688105-50.196079m1.07085 40.458039c-6.759739 10.708497 3.279477 21.785098 5.923137 32.125491 0.769673 23.960261 0.033464 47.953987 0.234248 71.947712-11.511634 3.179085-27.072418 9.068758-35.906928-2.610196-5.956601-13.720261-2.911373-29.113725-3.246013-43.570196-9.771503 15.795033-17.434771 37.948235-5.822745 54.747189 11.913203 16.564706 30.753464 28.912941 51.066144 31.79085 34.066405 1.740131 61.774641-29.548758 64.217516-61.875033 0.769673-8.499869-5.923137-14.623791-10.139608-21.149281 1.305098 15.928889-0.635817 34.26719-13.151372 45.644968-8.332549 6.793203-19.041046 1.706667-27.641308-1.706667 0.870065-25.365752-0.100392-50.831895 2.041308-76.130719 3.848366-8.83451 8.934902-17.401307 8.399477-27.473987-9.135686-9.470327-26.302745-11.176993-35.973856-1.740131z" p-id="7336"></path></svg>